<!DOCTYPE svg PUBLIC "-//W3C//DTD SVG 1.1//EN" "http://www.w3.org/Graphics/SVG/1.1/DTD/svg11.dtd">
<!-- Uploaded to: SVG Repo, www.svgrepo.com, Transformed by: SVG Repo Mixer Tools -->
<svg fill="#ffffff" width="800px" height="800px" viewBox="0 0 24 24" xmlns="http://www.w3.org/2000/svg" stroke="#ffffff">
<g id="SVGRepo_bgCarrier" stroke-width="0"/>
<g id="SVGRepo_tracerCarrier" stroke-linecap="round" stroke-linejoin="round"/>
<g id="SVGRepo_iconCarrier">
<path d="M19,2l3,7H17L12,4,7,9H2L5,2Zm-3,9h6V22H14V16H10v6H2V11H8l4-4ZM8,18H4v2H8Zm0-4H4v2H8Zm5-3a1,1,0,1,0-1,1A1,1,0,0,0,13,11Zm7,7H16v2h4Zm0-4H16v2h4Z"/>
</g>
</svg>